<mxfile host="app.diagrams.net" modified="2024-02-23T12:39:54.651Z" agent="Mozilla/5.0 (Windows NT 10.0; Win64; x64) AppleWebKit/537.36 (KHTML, like Gecko) Chrome/109.0.0.0 Safari/537.36" version="23.1.6" etag="oFdk77-RYxDpQ2BOzVpi" type="github">
  <diagram name="第 1 页" id="U91pwaUTUUqLQCPqcsZF">
    <mxGraphModel>
      <root>
        <mxCell id="0" />
        <mxCell id="1" parent="0" />
      </root>
    </mxGraphModel>
  </diagram>
</mxfile>
